<svg xmlns="http://www.w3.org/2000/svg" width="317" height="490" viewBox="0 0 317 490" fill="none"><path opacity="0.1" fill-rule="evenodd" clip-rule="evenodd" d="M316.225 82.1846C315.672 177.776 193.151 210.187 118.082 269.37C43.9748 327.794 -15.9995 439.555 -107.425 416.178C-198.503 392.89 -195.825 265.729 -233.315 179.521C-267.583 100.725 -334.154 30.1123 -311.349 -52.7314C-284.091 -151.753 -212.55 -253.037 -110.669 -266.021C-13.2715 -278.434 44.18 -169.799 120.265 -107.739C194.427 -47.247 316.779 -13.5174 316.225 82.1846Z" fill="#51AC8F"></path><path opacity="0.32" d="M315.732 152.182C315.457 199.721 284.87 231.592 244.821 259.018C227.88 270.62 209.274 281.407 190.585 292.243C187.185 294.214 183.784 296.186 180.388 298.165C158.337 311.02 136.576 324.158 117.779 338.977C99.2211 353.608 81.556 371.57 64.0836 389.899C61.3919 392.722 58.7047 395.554 56.0196 398.384C41.2669 413.934 26.5738 429.42 11.4935 443.079C-24.1618 475.373 -61.8383 497.316 -107.295 485.693C-152.574 474.116 -174.596 436.726 -189.985 391.284C-196.258 372.764 -201.417 352.939 -206.604 333.013C-207.779 328.498 -208.955 323.977 -210.147 319.465C-216.591 295.056 -223.461 270.912 -232.851 249.322C-241.429 229.597 -252.026 210.389 -262.73 191.394C-263.894 189.327 -265.06 187.263 -266.225 185.201C-275.768 168.304 -285.23 151.551 -293.277 134.697C-311.333 96.8809 -322.216 58.6516 -310.861 17.4013C-297.249 -32.0488 -272.58 -82.0558 -238.608 -121.313C-204.637 -160.569 -161.386 -189.053 -110.6 -195.525C-62.1262 -201.703 -23.5588 -177.775 12.4568 -144.441C27.6701 -130.36 42.4081 -114.62 57.2372 -98.7827C59.9612 -95.8735 62.6882 -92.961 65.4219 -90.055C83.0297 -71.3366 100.906 -52.889 119.955 -37.3511C138.526 -22.2034 160.106 -8.73717 181.997 4.42721C185.583 6.58351 189.177 8.73162 192.768 10.8777C211.108 21.8399 229.361 32.7495 245.982 44.4282C285.738 72.3613 316.007 104.588 315.732 152.182Z" stroke="#51AC8F"></path></svg>